<?xml version="1.0" encoding="utf-8"?>
<!-- Generator: Adobe Illustrator 25.3.0, SVG Export Plug-In . SVG Version: 6.00 Build 0)  -->
<svg version="1.1" id="Capa_1" xmlns="http://www.w3.org/2000/svg" xmlns:xlink="http://www.w3.org/1999/xlink" x="0px" y="0px"
	 viewBox="0 0 1000 1000" style="enable-background:new 0 0 1000 1000;" xml:space="preserve">
<style type="text/css">
	.st0{fill-rule:evenodd;clip-rule:evenodd;fill:#FF9900;}
	.st1{fill-rule:evenodd;clip-rule:evenodd;fill:#FFFFFF;}
</style>
<g>
	<path class="st0" d="M615,581.1c-55.3,40.9-135.8,62.7-205.2,62.7c-97.2,0-184.4-35.9-250.8-95.6c-5-4.7-0.7-11.1,5.7-7.4
		c71.4,41.6,159.6,66.4,250.8,66.4c61.4,0,129.1-12.7,191.4-39.2C616.3,564.4,624.1,574.4,615,581.1L615,581.1z"/>
	<path class="st0" d="M638.1,554.6c-7-9.1-46.9-4.4-64.7-2c-5.4,0.7-6.4-4-1.3-7.4c31.9-22.5,83.8-15.8,89.9-8.4
		c6,7.4-1.7,59.7-31.5,84.5c-4.7,3.7-9.1,1.7-7-3.4C630.1,601.3,645.2,564,638.1,554.6z"/>
	<path class="st1" d="M574.4,387.7v-21.8c0-3.4,2.3-5.4,5.4-5.4H677c3,0,5.7,2.3,5.7,5.4v18.4c0,3-2.7,7-7.4,13.7l-50.3,71.7
		c18.8-0.3,38.6,2.3,55.3,11.7c3.7,2,4.7,5.4,5,8.4v23.1c0,3.4-3.4,7-7,5c-29.8-15.8-69.7-17.4-102.6,0.3c-3.4,1.7-7-1.7-7-5v-22.1
		c0-3.4,0-9.4,3.7-14.8l58.3-83.5h-50.6C577.1,393,574.4,390.7,574.4,387.7L574.4,387.7z M220,522.8h-29.5c-2.7-0.3-5-2.3-5.4-5
		V366.2c0-3,2.7-5.4,5.7-5.4h27.5c3,0,5,2.3,5.4,5v19.8h0.7c7-19.1,20.8-28.2,38.9-28.2c18.4,0,30.2,9.1,38.2,28.2
		c7-19.1,23.5-28.2,40.9-28.2c12.4,0,25.8,5,34.2,16.8c9.4,12.7,7.4,31.2,7.4,47.6v95.9c0,3-2.7,5.4-5.7,5.4h-29.2
		c-3-0.3-5.4-2.7-5.4-5.4v-80.5c0-6.4,0.7-22.5-0.7-28.5c-2.3-10.1-8.7-13.1-17.4-13.1c-7,0-14.8,4.7-17.8,12.4
		c-3,7.7-2.7,20.5-2.7,29.2v80.5c0,3-2.7,5.4-5.7,5.4H270c-3-0.3-5.4-2.7-5.4-5.4v-80.5c0-16.8,2.7-41.9-18.1-41.9
		c-21.1,0-20.5,24.1-20.5,41.9v80.5C225.7,520.5,223.4,522.8,220,522.8L220,522.8z M766.5,357.5c43.9,0,67.7,37.6,67.7,85.5
		c0,46.3-26.2,83.1-67.7,83.1c-42.9,0-66.4-37.6-66.4-84.5C699.8,394.4,723.6,357.5,766.5,357.5L766.5,357.5z M766.5,388.7
		c-21.8,0-23.1,29.8-23.1,48.3s-0.3,58,22.8,58c22.8,0,24.1-31.9,24.1-51.3c0-12.7-0.7-28.2-4.4-40.2
		C782.6,392.7,775.9,388.7,766.5,388.7L766.5,388.7z M890.9,522.8h-29.5c-3-0.3-5.4-2.7-5.4-5.4V365.6c0.3-2.7,2.7-5,5.7-5h27.5
		c2.7,0,4.7,2,5.4,4.4V388h0.7c8.4-20.8,19.8-30.5,40.2-30.5c13.1,0,26.2,4.7,34.5,17.8c7.7,12.1,7.7,32.5,7.7,47.3v95.6
		c-0.3,2.7-2.7,4.7-5.7,4.7h-29.5c-2.7-0.3-5-2.3-5.4-4.7v-82.5c0-16.8,2-40.9-18.4-40.9c-7,0-13.7,4.7-17.1,12.1
		c-4,9.4-4.7,18.4-4.7,28.8v81.8C896.6,520.5,893.9,522.8,890.9,522.8L890.9,522.8z M497,450.4c0,11.4,0.3,21.1-5.4,31.5
		c-4.7,8.4-12.1,13.4-20.5,13.4c-11.4,0-18.1-8.7-18.1-21.5c0-25.1,22.5-29.8,43.9-29.8V450.4z M526.8,522.5c-2,1.7-4.7,2-7,0.7
		c-9.7-8-11.7-12.1-17.1-19.8c-16.1,16.4-27.8,21.5-48.6,21.5c-24.8,0-44.3-15.4-44.3-45.9c0-24.1,13.1-40.2,31.5-48.3
		c16.1-7,38.6-8.4,55.7-10.4v-3.7c0-7,0.7-15.4-3.7-21.5c-3.7-5.4-10.4-7.7-16.4-7.7c-11.4,0-21.5,5.7-23.8,17.8
		c-0.7,2.7-2.3,5.4-5,5.4l-28.5-3c-2.3-0.7-5-2.3-4.4-6c6.7-34.9,37.9-45.3,66-45.3c14.4,0,33.2,3.7,44.6,14.8
		c14.4,13.4,13.1,31.5,13.1,51v45.9c0,13.7,5.7,19.8,11.1,27.5c2,2.7,2.3,6,0,7.7C543.6,508,532.9,517.4,526.8,522.5L526.8,522.5z
		 M109.7,450.4c0,11.4,0.3,21.1-5.4,31.5c-4.7,8.4-12.1,13.4-20.5,13.4c-11.4,0-18.1-8.7-18.1-21.5c0-25.1,22.5-29.8,43.9-29.8
		V450.4z M139.2,522.5c-2,1.7-4.7,2-7,0.7c-9.7-8-11.7-12.1-17.1-19.8c-16.1,16.4-27.8,21.5-48.6,21.5c-24.8,0-44.3-15.4-44.3-45.9
		c0-24.1,13.1-40.2,31.5-48.3c16.1-7,38.6-8.4,55.7-10.4v-3.7c0-7,0.7-15.4-3.7-21.5c-3.7-5.4-10.4-7.7-16.4-7.7
		c-11.4,0-21.5,5.7-23.8,17.8c-0.7,2.7-2.3,5.4-5,5.4l-28.5-3c-2.3-0.7-5-2.3-4.4-6c6.7-34.9,37.9-45.3,66-45.3
		c14.4,0,33.2,3.7,44.6,14.8c14.4,13.4,13.1,31.5,13.1,51v45.9c0,13.7,5.7,19.8,11.1,27.5c2,2.7,2.3,6,0,7.7
		C156,508,145.3,517.4,139.2,522.5L139.2,522.5z"/>
</g>
</svg>
